<?xml version="1.0" encoding="UTF-8" standalone="no"?>
<!DOCTYPE svg PUBLIC "-//W3C//DTD SVG 1.1//EN" "http://www.w3.org/Graphics/SVG/1.1/DTD/svg11.dtd">
<svg version="1.1" xmlns="http://www.w3.org/2000/svg" xmlns:xlink="http://www.w3.org/1999/xlink" preserveAspectRatio="xMidYMid meet" viewBox="0 0 640 640" width="640" height="640"><defs><path d="M320.72 6.94L17 162.96L17 474.99L320.72 631L624.44 474.99L624.44 162.96L320.72 6.94Z" id="b2vhP0V768"></path><path d="M317.07 1L287.66 16.92L287.66 48.77L317.07 64.7L346.49 48.77L346.49 16.92L317.07 1Z" id="b1LAg47anv"></path><path d="M469.92 82.54L441.44 97.17L441.44 126.42L469.92 141.05L498.39 126.42L498.39 97.17L469.92 82.54Z" id="g1Kwhx8AyT"></path><path d="M147.86 95.94L119.38 110.57L119.38 139.82L147.86 154.45L176.33 139.82L176.33 110.57L147.86 95.94Z" id="c49DNHrpgO"></path><path d="M45.8 290.65L19.22 304.84L19.22 333.2L45.8 347.38L72.37 333.2L72.37 304.84L45.8 290.65Z" id="b8wMesyAx"></path><path d="M531.54 464.84L503.62 479.77L503.62 509.63L531.54 524.56L559.46 509.63L559.46 479.77L531.54 464.84Z" id="b1GKPtmZxh"></path><path d="M595.45 301.05L569.35 315.73L569.35 345.09L595.45 359.77L621.55 345.09L621.55 315.73L595.45 301.05Z" id="ilW5P1Ozf"></path><path d="M469.88 107.54L315.25 613.76L44.81 319.57L469.88 100.28" id="bqBtKhuS"></path><path d="M328.23 44.49L595.97 332.25L147.86 439.72L320.72 36.19" id="auA7BiS5e"></path><path d="M472.76 115.7L531.15 491.17L147.86 125.2L147.86 439.72" id="a1cqj7sRB"></path><path d="M150.48 416.04L122.01 430.67L122.01 459.92L150.48 474.55L178.96 459.92L178.96 430.67L150.48 416.04Z" id="c8N8ftctm"></path><path d="M397.54 345.3L371.91 358.46L371.91 384.79L397.54 397.95L423.17 384.79L423.17 358.46L397.54 345.3Z" id="hlQIn8qnZ"></path><path d="" id="a3RCjIE3We"></path><path d="M624.44 167.89L624.44 475.54L317.13 629.51L17 472.87L17 163.74L320.72 7.94" id="b6jUSXduSK"></path><path d="M630 174.22L313.75 10.92" id="b3m7J08VQ"></path><path d="" id="hfj4ITrrW"></path></defs><g><g><g><use xlink:href="#b2vhP0V768" opacity="1" fill="#ffffff" fill-opacity="1"></use></g><g><use xlink:href="#b1LAg47anv" opacity="1" fill="#000000" fill-opacity="1"></use></g><g><use xlink:href="#g1Kwhx8AyT" opacity="1" fill="#000000" fill-opacity="1"></use></g><g><use xlink:href="#c49DNHrpgO" opacity="1" fill="#000000" fill-opacity="1"></use></g><g><use xlink:href="#b8wMesyAx" opacity="1" fill="#000000" fill-opacity="1"></use></g><g><use xlink:href="#b1GKPtmZxh" opacity="1" fill="#000000" fill-opacity="1"></use></g><g><use xlink:href="#ilW5P1Ozf" opacity="1" fill="#000000" fill-opacity="1"></use></g><g><g><use xlink:href="#bqBtKhuS" opacity="1" fill-opacity="0" stroke="#000000" stroke-width="20" stroke-opacity="1"></use></g></g><g><g><use xlink:href="#auA7BiS5e" opacity="1" fill-opacity="0" stroke="#000000" stroke-width="20" stroke-opacity="1"></use></g></g><g><g><use xlink:href="#a1cqj7sRB" opacity="1" fill-opacity="0" stroke="#000000" stroke-width="20" stroke-opacity="1"></use></g></g><g><use xlink:href="#c8N8ftctm" opacity="1" fill="#000000" fill-opacity="1"></use></g><g><use xlink:href="#hlQIn8qnZ" opacity="1" fill="#000000" fill-opacity="1"></use></g><g><g><use xlink:href="#a3RCjIE3We" opacity="1" fill-opacity="0" stroke="#000000" stroke-width="20" stroke-opacity="1"></use></g></g><g><g><use xlink:href="#b6jUSXduSK" opacity="1" fill-opacity="0" stroke="#000000" stroke-width="20" stroke-opacity="1"></use></g></g><g><g><use xlink:href="#b3m7J08VQ" opacity="1" fill-opacity="0" stroke="#000000" stroke-width="20" stroke-opacity="1"></use></g></g><g><g><use xlink:href="#hfj4ITrrW" opacity="1" fill-opacity="0" stroke="#000000" stroke-width="19" stroke-opacity="1"></use></g></g></g></g></svg>