<?xml version="1.0" encoding="UTF-8" standalone="no"?>
<!DOCTYPE svg PUBLIC "-//W3C//DTD SVG 1.1//EN" "http://www.w3.org/Graphics/SVG/1.1/DTD/svg11.dtd">
<svg version="1.1" xmlns="http://www.w3.org/2000/svg" xmlns:xlink="http://www.w3.org/1999/xlink" preserveAspectRatio="xMidYMid meet" viewBox="0 0 651 651" width="651" height="651"><defs><path d="M23 167.96L23 479.99L326.72 636L630.44 479.99L630.44 167.96L326.72 11.94L23 167.96Z" id="a2Rg0i5aJd"></path><path d="M293.66 21.92L293.66 53.77L323.07 69.7L352.49 53.77L352.49 21.92L323.07 6L293.66 21.92Z" id="c7ho4sA3gc"></path><path d="M447.44 102.17L447.44 131.42L475.92 146.05L504.39 131.42L504.39 102.17L475.92 87.54L447.44 102.17Z" id="c8qt1lqoZ"></path><path d="M125.38 115.57L125.38 144.82L153.86 159.45L182.33 144.82L182.33 115.57L153.86 100.94L125.38 115.57Z" id="b2d83oAR4V"></path><path d="M25.22 309.84L25.22 338.2L51.8 352.38L78.37 338.2L78.37 309.84L51.8 295.65L25.22 309.84Z" id="f2eR1PtE9O"></path><path d="M475.88 112.54L321.25 618.76L50.81 324.57L475.88 105.28" id="bYEeDzkqe"></path><path d="M630.44 172.89L630.44 480.54L323.13 634.51L23 477.87L23 168.74L326.72 12.94" id="jEqtK0MD"></path><path d="M509.62 484.77L509.62 514.63L537.54 529.56L565.46 514.63L565.46 484.77L537.54 469.84L509.62 484.77Z" id="f3hml3dYmY"></path><path d="M575.35 320.73L575.35 350.09L601.45 364.77L627.55 350.09L627.55 320.73L601.45 306.05L575.35 320.73Z" id="a2YRGdBzoz"></path><path d="M334.23 49.49L601.97 337.25L153.86 444.72L326.72 41.19" id="d1Cp19X6EG"></path><path d="M478.76 120.7L537.15 496.17L153.86 130.2L153.86 444.72" id="arbLqgKs1"></path><path d="M134.38 432.86L134.38 462.14L162.87 476.78L191.38 462.14L191.38 432.86L162.87 418.22L134.38 432.86Z" id="b7lCvGB21F"></path><path d="M377.91 364.68L377.91 393.45L405.91 407.83L433.91 393.45L433.91 364.68L405.91 350.3L377.91 364.68Z" id="f7HzUTvmn0"></path><path d="M636.93 182.85L316.83 13.94" id="djmRZMEPm"></path></defs><g><g><g><use xlink:href="#a2Rg0i5aJd" opacity="1" fill="#ffffff" fill-opacity="1"></use><g><use xlink:href="#a2Rg0i5aJd" opacity="1" fill-opacity="0" stroke="#000000" stroke-width="1" stroke-opacity="0"></use></g></g><g><use xlink:href="#c7ho4sA3gc" opacity="1" fill="#000000" fill-opacity="1"></use><g><use xlink:href="#c7ho4sA3gc" opacity="1" fill-opacity="0" stroke="#000000" stroke-width="1" stroke-opacity="0"></use></g></g><g><use xlink:href="#c8qt1lqoZ" opacity="1" fill="#000000" fill-opacity="1"></use><g><use xlink:href="#c8qt1lqoZ" opacity="1" fill-opacity="0" stroke="#000000" stroke-width="1" stroke-opacity="0"></use></g></g><g><use xlink:href="#b2d83oAR4V" opacity="1" fill="#000000" fill-opacity="1"></use><g><use xlink:href="#b2d83oAR4V" opacity="1" fill-opacity="0" stroke="#000000" stroke-width="1" stroke-opacity="0"></use></g></g><g><use xlink:href="#f2eR1PtE9O" opacity="1" fill="#000000" fill-opacity="1"></use><g><use xlink:href="#f2eR1PtE9O" opacity="1" fill-opacity="0" stroke="#000000" stroke-width="1" stroke-opacity="0"></use></g></g><g><use xlink:href="#bYEeDzkqe" opacity="1" fill="#000000" fill-opacity="0"></use><g><use xlink:href="#bYEeDzkqe" opacity="1" fill-opacity="0" stroke="#000000" stroke-width="25" stroke-opacity="1"></use></g></g><g><use xlink:href="#jEqtK0MD" opacity="1" fill="#000000" fill-opacity="0"></use><g><use xlink:href="#jEqtK0MD" opacity="1" fill-opacity="0" stroke="#000000" stroke-width="25" stroke-opacity="1"></use></g></g><g><use xlink:href="#f3hml3dYmY" opacity="1" fill="#000000" fill-opacity="1"></use><g><use xlink:href="#f3hml3dYmY" opacity="1" fill-opacity="0" stroke="#000000" stroke-width="1" stroke-opacity="0"></use></g></g><g><use xlink:href="#a2YRGdBzoz" opacity="1" fill="#000000" fill-opacity="1"></use><g><use xlink:href="#a2YRGdBzoz" opacity="1" fill-opacity="0" stroke="#000000" stroke-width="1" stroke-opacity="0"></use></g></g><g><use xlink:href="#d1Cp19X6EG" opacity="1" fill="#000000" fill-opacity="0"></use><g><use xlink:href="#d1Cp19X6EG" opacity="1" fill-opacity="0" stroke="#000000" stroke-width="25" stroke-opacity="1"></use></g></g><g><use xlink:href="#arbLqgKs1" opacity="1" fill="#000000" fill-opacity="0"></use><g><use xlink:href="#arbLqgKs1" opacity="1" fill-opacity="0" stroke="#000000" stroke-width="25" stroke-opacity="1"></use></g></g><g><use xlink:href="#b7lCvGB21F" opacity="1" fill="#000000" fill-opacity="1"></use><g><use xlink:href="#b7lCvGB21F" opacity="1" fill-opacity="0" stroke="#000000" stroke-width="1" stroke-opacity="0"></use></g></g><g><use xlink:href="#f7HzUTvmn0" opacity="1" fill="#000000" fill-opacity="1"></use><g><use xlink:href="#f7HzUTvmn0" opacity="1" fill-opacity="0" stroke="#000000" stroke-width="1" stroke-opacity="0"></use></g></g><g><use xlink:href="#djmRZMEPm" opacity="1" fill="#000000" fill-opacity="0"></use><g><use xlink:href="#djmRZMEPm" opacity="1" fill-opacity="0" stroke="#000000" stroke-width="25" stroke-opacity="1"></use></g></g></g></g></svg>